<svg xmlns="http://www.w3.org/2000/svg" viewBox="0 0 1408 768" width="1408" height="768"><path fill="#000000" fill-rule="evenodd" d="M637 735.89C660.26 733.36 672.16 727.76 681.05 715.16L706.86 709.75C738 710.46 762.37 707.24 787.53 699.1L801.91 700.12C812.33 707.58 827.71 710.76 864.58 713.05C889.19 714.59 927.09 713.82 935.78 711.61C948.22 708.44 952.64 704.87 958.54 693.23C961.82 686.73 972.28 673.91 973.37 675.05C973.6 675.3 973.17 678.42 972.41 682C970.7 690.11 970.59 701.19 972.2 702.8C974.48 705.08 976.03 703.97 980.64 696.78C983.19 692.81 986.9 687.61 988.89 685.23C993.57 679.62 1004.67 670.81 1003.62 673.53C998.33 687.24 996.83 700.18 1000.28 702.37C1001.8 703.34 1002.79 702.66 1007.13 697.73C1011.4 692.87 1019.71 686 1021.31 686C1021.56 686 1021.12 687.87 1020.33 690.16C1018.4 695.77 1018.91 702.37 1021.3 702.83C1022.3 703.01 1025.45 701.57 1028.3 699.61C1034.08 695.66 1040.14 693.24 1047.16 692.09L1049.5 694.91C1044.21 703.13 1045.7 706.02 1054.28 704.19C1064.52 702.02 1068.66 701.9 1080.97 703.44C1087.83 704.3 1096.21 705 1099.59 705C1109.21 705 1122.06 702.35 1133.46 698.01C1143.44 694.22 1155 691.53 1155 693C1155 693.38 1154.12 694.49 1153.04 695.47C1151.96 696.44 1150.55 698.84 1149.9 700.8C1148.83 704.04 1148.93 704.53 1150.97 706.18C1154.91 709.36 1162.27 708.56 1179.25 703.09C1199.14 696.68 1207.96 695.38 1221.43 696.9C1233.45 698.25 1241.7 700.46 1253.23 705.41C1263.66 709.89 1266.26 710.07 1265.82 706.25C1265.43 702.93 1259.42 699.64 1245.5 695.1C1233.19 691.1 1225.35 689.81 1213 689.77C1200.3 689.74 1194.56 690.81 1177 696.51C1164.95 700.42 1160.51 701.47 1157.61 701.11C1157.13 701.05 1158.81 698.77 1161.36 696.04C1168.75 688.15 1167.5 686 1155.55 686.01C1148.83 686.01 1145.64 686.65 1136.22 689.87L1130.5 687.92C1136.12 682.03 1140.97 673.38 1140.99 669.23C1141.01 665.54 1137.18 664.44 1129.35 665.88C1120.54 667.5 1113.79 671.08 1107.33 677.54C1104.4 680.47 1102 682.51 1102 682.06C1102 679.78 1107.38 660.36 1110.18 652.55C1113.22 644.08 1113.45 643.74 1114.48 646.25C1116.2 650.46 1120.05 653.94 1124.24 655.07C1127.43 655.92 1128.77 655.79 1131.8 654.3C1136.37 652.06 1140 646.77 1140 642.35C1140 638.67 1141.02 638.11 1143.13 640.66C1143.88 641.58 1146.44 643.19 1148.82 644.24C1162.37 650.25 1173.2 635.96 1163.98 624.24L1166.04 620.78C1173.81 619.45 1178.27 614.79 1178.27 608C1178.27 601.2 1172.95 595.84 1164.82 594.47L1163.49 590.83C1168.51 584.86 1168.14 577.41 1162.55 572.25C1157.67 567.74 1151.16 567.65 1145.16 572C1142.88 573.65 1140.88 575 1140.71 575C1140.55 575 1140.3 573.32 1140.16 571.26C1139.83 566.44 1137.25 562.09 1133.05 559.25C1124.87 553.74 1115.97 558.81 1113.51 570.38L1110.7 571.24C1103.29 564.47 1093.29 564.46 1088.56 571.22C1086.15 574.66 1086.59 581.62 1089.54 586.66L1089.51 591C1085.6 591 1080.59 593.44 1078.17 596.51C1075.19 600.3 1075.19 607.7 1078.17 611.49C1080.55 614.52 1087.2 617.94 1090.76 617.98L1090.43 621.93C1086.89 627.28 1086.34 632.61 1088.9 636.7C1092.65 642.68 1098.2 644.66 1105.34 642.57L1106.71 644.62C1104.66 648.63 1098.35 668.6 1097.52 673.75C1097.14 676.09 1096.41 678 1095.91 678C1095.41 678 1095 677.57 1095 677.04C1095 676.51 1094.06 673.57 1092.92 670.5C1088.37 658.36 1069.67 643.75 1067.62 650.75C1066.22 655.56 1065.94 662.22 1066.91 667.56C1068.3 675.22 1073.78 686.33 1079.2 692.49C1083.38 697.24 1083.41 697.32 1080.66 696.63C1079.11 696.24 1073.35 695.92 1067.85 695.91L1061.41 691.97C1067.21 685.55 1064.36 683.21 1052.1 684.35C1045.01 685.01 1034.06 688.16 1030.16 690.66C1028.88 691.49 1027.61 691.94 1027.34 691.67C1027.07 691.41 1028.04 688.67 1029.5 685.59C1032.53 679.18 1032.45 676.64 1029.2 676.18C1026.34 675.77 1015.76 680.72 1010.6 684.88C1008.45 686.61 1006.53 687.87 1006.34 687.67C1005.65 686.98 1009.04 678.65 1013.15 670.95C1019.38 659.26 1017.44 657.4 1005.38 663.46C997.37 667.49 988.72 674.42 982.85 681.5L979.41 682.5C979.79 680.3 981.02 675.67 982.14 672.21C984.68 664.41 984.16 662.52 979.73 663.4C975.75 664.18 967.03 670.07 962.93 674.73C961.25 676.65 959.76 678.05 959.62 677.86C959.48 677.66 958.79 675.48 958.09 673C956.42 667.07 951.7 659.75 947.24 656.17L950.21 644.55C961.33 629.73 968.38 613.27 971.65 594.5C973.79 582.18 973.04 560.27 970.14 550.62C962.31 524.61 945.87 507.05 923.65 500.98L916.9 493.4C916.57 490.16 915.98 485.65 915.59 483.39L920.69 476.97C953.14 464.08 982.79 441.1 1004.3 412.21C1018.36 393.31 1040.17 354.46 1046.3 337.39C1053 318.74 1051.14 301.98 1041.5 294.29C1039.53 292.72 1038 290.6 1038 289.43C1038 281.42 1030.66 269.89 1023.13 266.08C1015.96 262.45 1006.57 261.81 999.17 264.43C995.2 265.84 994.58 265.83 991.67 264.25C989.48 263.07 986.19 262.54 981 262.54C972 262.55 967.41 264.61 959.29 272.29C952.62 278.59 948.73 284.95 940.68 302.67C930.69 324.69 920.95 338.25 907.41 349.01C899.38 355.39 878.84 366.28 875.75 365.8C874.71 365.63 873.13 364.3 872.25 362.84C870.66 360.19 870.68 360.14 877.47 352.84C882.64 347.27 893.1 334.22 895.63 330.16C895.75 329.98 899.54 332.34 904.06 335.42C910.47 339.78 912.58 340.77 913.64 339.89C916.53 337.49 915.04 335.08 907.5 330C903.38 327.22 900 324.49 900 323.95C900 323.4 901.76 319.45 903.92 315.16C906.07 310.88 909.28 303.24 911.04 298.19C912.81 293.13 914.76 288.99 915.38 288.99C915.99 288.98 920.46 290.18 925.29 291.66C933.44 294.15 934.21 294.22 935.73 292.7C937.25 291.18 937.24 290.92 935.64 289.16C934.7 288.11 930.23 286.23 925.71 284.97C921.19 283.72 917.16 282.4 916.75 282.04C916.33 281.68 916.66 276.91 917.49 271.45C918.31 265.98 918.99 258.65 918.99 255.18L930.34 249.55C940.61 250.19 941.75 250.09 942.36 248.5C943.64 245.16 941.25 244.18 930.04 243.46L918.5 234.63C916.66 212.77 909.76 188.86 899.37 168.29L895.47 143.62C898.91 126.42 900 114.61 900 94.61C900 57.56 893.71 34.7 881.65 27.92C876.24 24.88 867.54 25.1 857.34 28.52C841.13 33.97 815.31 49.07 797.29 63.67L779.29 68.1C734.01 52.55 677.01 52.33 631.78 67.51L612.78 64.38C589.89 45.75 558.4 28.66 542.3 26.13C520.47 22.71 510.47 41.9 509.26 89.55C508.71 111.59 510.09 126.81 514.41 146L511.93 165.46C502.03 184 495.07 206.74 492.47 228.93C491.66 235.84 491 241.77 491 242.12C491 242.46 486.07 243.06 480.06 243.45C468.75 244.19 466.12 245.26 467.41 248.62C467.97 250.08 469.37 250.19 479.36 249.57L491.88 261.69C492.53 268.73 493.45 276.18 493.92 278.24L487.64 284.03C473.29 288.15 471.57 289.27 473.93 292.94C474.72 294.17 476.36 293.96 484.95 291.51C491.02 289.79 495.37 289.01 495.86 289.57C496.31 290.08 497.94 294.1 499.49 298.5C501.04 302.9 504.31 310.51 506.75 315.41C510.2 322.35 510.88 324.49 509.84 325.09C503.98 328.47 494.46 335.82 494.2 337.19C494.02 338.11 494.73 339.32 495.78 339.88C497.32 340.71 499.2 339.87 505.95 335.36C510.5 332.31 514.54 330.2 514.93 330.66C515.33 331.12 518.61 335.32 522.23 340C525.86 344.68 532.19 351.82 536.3 355.87L538.29 372.26C515.79 409.2 501.36 449.94 496.87 489.23L489.38 502.04C481.76 504.58 473.14 510.08 466.65 516.55C459.69 523.5 457.25 526.98 452.5 536.66L444.17 539.5C434.22 525.6 431.96 507.65 437.91 489.77C440.86 480.89 446.99 470.52 459.78 452.75C473.7 433.39 480.31 421.85 483.94 410.5C494.86 376.42 486.99 343.05 462.65 320.29C434.82 294.25 393.26 288.94 358.22 306.94C332.76 320.01 316.69 343.05 312.84 371.99C309.64 396.05 319.95 415.17 339.37 421.15C356.98 426.58 375.81 418.69 383.34 402.74C384.7 399.86 386.61 393.46 387.59 388.51C389.11 380.82 389.88 378.98 392.97 375.67C395.9 372.52 397.45 371.7 401.3 371.27C415.01 369.72 423.95 380.97 421.31 396.41C419.94 404.42 416.75 410.72 405.07 428.5C390.72 450.34 381.74 470.12 377.83 488.5C377.12 491.84 376.55 501.14 376.55 509.5C376.54 521.95 376.94 526.03 378.87 533.5C381.57 544 387.94 558.07 394.08 567.12C403.7 581.31 421.92 596.17 438 602.93C442.12 604.66 446.11 606.41 446.86 606.81C447.61 607.21 449.45 610.91 450.96 615.02C455.97 628.74 464.83 643.56 472.35 650.86L471.58 658.36C466.78 663.17 463.04 670.25 462.27 676.02C461.98 678.21 461.53 680 461.28 680C461.02 680 458.95 678.4 456.66 676.43C454.37 674.47 449.29 671.28 445.36 669.34C434.07 663.75 431.69 665.68 436.93 676.17C439.7 681.72 440.69 685 439.6 685C439.38 685 436.83 683.4 433.93 681.45C431.03 679.5 427.72 678.04 426.58 678.2C424.79 678.46 424.46 679.31 424.2 684.32L417.12 683.19C410.49 676.4 398.24 668.22 391.24 665.91C385.42 663.99 383.23 667.7 387.02 673.03C389.12 675.98 394.38 686.95 395.42 690.56C395.96 692.42 395.24 692.24 388.26 688.8C377.09 683.31 362.1 681.19 356.08 684.26C352.61 686.04 352.45 687.68 355.52 690.25C357 691.49 359.53 693.62 361.15 695L351.3 697.62C344.05 697.68 335.62 698.38 331.86 699.22L329.6 695.32C337.19 686.01 341 675.94 341 665.22C341 655.41 338.22 653.88 329.48 658.9C322.53 662.88 316.39 669.89 312.51 678.25C308.94 685.97 309.02 686.01 306.96 675.5C305.38 667.46 301.54 655.32 297.4 645.24C293.56 635.91 293.41 635.27 295.47 636.98C297.85 638.95 303.82 639.89 307.5 638.87C317.05 636.24 317.51 622.91 308.3 616.2L310.51 613.1C317.08 611.45 322 606.5 322 601.55C322 593.87 316.57 589 308.02 589C305.72 589 304.01 588.66 304.22 588.25C310.04 576.88 310.22 572.44 305.02 567.75C300.23 563.43 292.69 564.41 286.37 570.18L283.54 568.34C281.25 556.14 271.7 551.1 264.5 558.3C261.4 561.4 259.02 567.09 259.01 571.42C259 573.26 258.9 573.26 256.74 571.22C254 568.66 247.92 566 244.78 566C240.67 566.01 236.2 569.59 234.91 573.91C233.82 577.54 233.95 578.41 236.2 582.96L233.99 588C219.93 588 216.43 603.02 228.9 609.89L230.62 614.26C225.57 617.94 223.74 624.15 226.15 629.44C228.39 634.35 234.1 636.27 241.57 634.6L244.21 639.76C243.84 644.95 244.08 645.95 246.45 648.76C251.4 654.64 259.11 654.06 264.98 647.37L270.02 648.03C272.29 652.49 277.13 655.99 281 655.99C284.39 655.99 289.66 652.64 290.52 649.94C291.07 648.21 291.41 648.03 292.11 649.12C293.58 651.39 299.71 671.05 300.97 677.5C301.61 680.8 302.36 684.28 302.63 685.23C302.9 686.18 300.48 684.32 297.26 681.1C294.03 677.87 289.17 674.11 286.45 672.73C277.37 668.15 265.98 666.99 264.63 670.52C263.41 673.71 266.92 682.12 272.56 689.51C275.06 692.79 275.63 694.04 274.36 693.49C269.53 691.4 258.94 689.11 253.82 689.06C241.9 688.94 240.19 692.07 247.75 700.2L248.43 704.67C246.19 704.32 239.44 702.18 233.43 699.92C216.47 693.54 209.29 692 196.43 692C179.58 692 163.33 695.77 149.03 702.99C142.4 706.33 141.61 707.18 142.5 710.01C143.39 712.82 145.02 712.55 155.37 707.88C160.39 705.62 168.78 702.66 174 701.31C182.39 699.15 185.13 698.91 197.5 699.24L229.6 705.81C248.32 712.21 253.94 713.13 257.78 710.44C261.25 708.01 260.48 703.57 255.63 698.11L258.66 696.3C261.5 696.62 268.7 698.76 274.66 701.05C297.91 709.98 306.44 710.78 331.59 706.41C348.16 703.52 362.99 703.48 370.57 706.28C375.21 707.99 378 707.09 378 703.88C378 702.76 375.46 699.18 372.35 695.93C367.16 690.48 366.9 690 369.17 690C376 690 388.01 695.15 395.26 701.18C398.36 703.75 400.8 705.03 402.26 704.82C404.27 704.53 404.48 703.99 404.3 699.47C404.19 696.7 402.76 690.64 401.11 685.99C399.47 681.34 398.26 677.41 398.42 677.25C399.05 676.61 410.72 685.91 414.57 690.12C416.81 692.56 419.9 696.88 421.45 699.72C426.51 709.03 429.87 707.51 430.86 695.45L434.57 690.29C436.26 691.71 438.91 694.71 440.46 696.94C443.65 701.55 447.4 702.46 448.53 698.89C449.34 696.34 448.31 687.33 446.52 681.39L447.87 678.43C451.84 680.48 460.37 689.92 463.87 696.12C472.2 710.87 482.85 714.05 523.5 713.91C536.15 713.86 550.46 713.52 555.31 713.15L565.96 716.64C569.93 725.61 578.87 731.71 592.28 734.59C607.14 737.78 616.98 738.07 637 735.89ZM605.65 726.03C601.18 725.16 600.44 724.22 599.04 717.72C597.91 712.48 598.81 706.57 601.64 700.64C603.63 696.45 602.9 694 599.65 694C594.49 694 589.9 707.81 591.73 717.8C592.31 720.94 592.61 723.68 592.41 723.89C591.43 724.95 582.85 720.52 579.63 717.29C572.87 710.54 572.29 699.86 578.1 688.96C585.84 674.44 599.78 667.48 620.68 667.68C632.26 667.8 633.8 667.24 632.36 663.49C631.48 661.21 627.55 660.5 616 660.53C607.94 660.55 603.79 661.09 598.14 662.84C594.1 664.09 590.65 664.98 590.48 664.81C589.89 664.21 581.75 643.34 576.44 628.82C562.31 590.19 556.53 564.8 553.94 530C553.1 518.71 552.37 514.02 551.24 512.75C549.22 510.47 547.46 510.54 545 513C542.47 515.53 542.33 524.7 544.51 543.51C548.41 577.1 554.19 599.73 569.14 639.91C571.27 645.63 572.85 650.48 572.65 650.69C572.44 650.89 568.79 647.9 564.53 644.03C556.86 637.06 553.71 635.69 551.2 638.2C550.54 638.86 550 640.54 550 641.94C550 644.92 559.08 653.92 570.98 662.74C575.12 665.81 578.84 668.61 579.25 668.96C579.67 669.32 577.92 671.83 575.37 674.55C570.1 680.16 565.57 688.92 563.99 696.54L555.31 702.36C551.12 702.71 543.32 703 537.97 703C526.49 703 525.81 702.53 525.2 694.13C524.79 688.42 526.06 684.05 529.47 679.44C530.76 677.7 530.79 677.09 529.65 675.54C527.23 672.23 523.51 674.25 520.43 680.56C517.89 685.74 517.75 686.72 518.3 695.17L509.19 703.53C503.73 703.13 498.53 702.21 497.29 701.42C494.51 699.64 492.61 692.83 493.44 687.62C493.79 685.44 495.29 681.49 496.78 678.85C499.27 674.42 499.35 673.93 497.85 672.42C492 666.57 483.58 685.59 486.83 697.34L485.2 700.52C471.1 697 467.58 679.35 478.55 667.16C486.3 658.54 503.21 652.53 517.8 653.2C525.02 653.54 526.79 652.29 525.64 647.7C524.47 643.04 514.69 641.75 500.74 644.42C496.65 645.2 491.55 646.59 489.4 647.49L480.71 643.96C473.82 636.5 468.15 627.77 463.79 617.89C457.81 604.33 455.84 595.48 455.28 579.5C454.85 567.5 455.09 564.21 456.93 556.5C460.09 543.27 465.09 533.89 473.49 525.46C479.65 519.28 490.63 512 493.8 512C494.37 512 495.1 516.24 495.47 521.75C496.98 544.33 502.25 572.4 505.69 576.21C507.97 578.73 511.65 578.46 513.51 575.63C514.93 573.46 514.89 572.62 513.1 565.88C504.7 534.42 503.92 504.63 510.61 471C515.33 447.28 522.44 426.52 534.06 402.5C540.37 389.45 550.96 371 552.14 371C552.54 371 556.61 373.52 561.19 376.61C571.44 383.53 591.1 393.37 600.22 396.14C606.58 398.07 607.2 398.1 609.52 396.58C612.42 394.68 612.72 391.91 610.25 389.86C609.29 389.06 604.14 386.68 598.81 384.57C579.81 377.05 562.05 365.63 546.74 351.07C538.2 342.96 525 326.73 525 324.35C525 322.88 548.24 311.48 562.23 306.09C573.5 301.75 593.53 295.95 604.2 293.93C611.18 292.61 613.4 291.2 612.43 288.68C611.46 286.14 607.16 286.56 589.95 290.89C568.49 296.29 547.11 304.5 529.41 314.14C525.52 316.26 521.81 318 521.18 318C518.65 318 505.91 287.64 507.72 285.92C508.76 284.93 531.53 281.4 546.5 279.91C554.09 279.16 567.41 278.91 582.73 279.23C601.59 279.64 607.2 279.47 608.02 278.48C609.38 276.84 606.72 274.03 603.68 273.91C602.48 273.87 595.65 273.5 588.5 273.09C566.06 271.83 532.62 274.18 512.18 278.46C506.02 279.75 505.85 279.73 505.03 277.59C503.99 274.84 502.01 258.92 502 253.25L508.85 249C536.61 249 571.27 254.86 598.31 264.12C610.45 268.28 613 268.46 613 265.15C613 263.24 609.71 261.48 599 257.65C575.49 249.26 538.03 243.01 511.13 243L502.47 235.25C504.45 213.34 510.51 192.55 521.08 171.4L526.12 149.4C520.68 127.91 518.34 101.88 519.99 81.18C521.78 58.76 525.61 44.24 531.21 38.64C533.89 35.96 534.46 35.8 539.3 36.44C546.02 37.32 560.1 42.94 571.5 49.3C585.99 57.39 595.56 64.2 616.44 81.32C618.62 83.1 618.95 83.04 632.08 78.61C678.68 62.87 732.95 63.09 778.84 79.2C790.08 83.15 790.28 83.18 792.56 81.35C793.83 80.33 798.61 76.44 803.18 72.7C820.04 58.93 839.46 47.06 855.5 40.73C875.48 32.86 879.99 34.75 884.89 53.04C888.31 65.82 889.37 75.85 889.34 95C889.31 114.79 888.51 122.57 884.26 144.34C881.59 158.03 881.59 158.21 883.44 161.34C896.69 183.64 905.86 211.34 907.64 234.43L898.66 243C876.75 243 841.17 248.23 820.85 254.44C802.83 259.95 797.55 262.26 797.18 264.81C797 266.02 797.49 267.25 798.26 267.55C799.04 267.84 806.4 265.84 814.63 263.09C838.35 255.17 864.48 250.62 893.75 249.32L907.95 256.09C907.9 263.03 905.9 278.44 904.92 279.42C904.68 279.66 901.56 279.24 897.99 278.5C877.13 274.13 843.07 271.73 821 273.07C813.58 273.52 806.8 273.92 805.94 273.95C803.33 274.04 800.84 276.42 801.51 278.17C802.07 279.63 804.63 279.74 826.32 279.27C852.17 278.71 866.33 279.59 888.84 283.17C897.72 284.58 902.35 285.75 902.71 286.68C903.46 288.65 898.53 302.13 893.76 311.16L875.69 311.81C853.89 300.9 834.23 293.82 812.5 289.03C801.44 286.59 798.4 286.51 797.59 288.63C796.83 290.61 798.64 293 800.92 293C805.02 293 834.66 301.22 846 305.5C858.08 310.06 880.58 320.47 884.32 323.23C886.04 324.5 885.87 324.95 881.55 330.82C864.78 353.6 841.42 371.8 813.97 383.46C802.66 388.27 801 389.42 801 392.42C801 395.23 802.81 397 805.68 397C810.99 397 830.86 388.05 844.31 379.6C850.96 375.42 852.96 374.54 852.5 375.99C852.16 377.06 852.41 378.9 853.05 380.09C854.09 382.03 854.75 382.19 859.63 381.61C867.21 380.72 883.01 375.5 892.5 370.75C905.57 364.21 913.99 358.25 923.07 349.12C934.2 337.92 941.3 327.01 950.5 306.92C958.71 289.03 964.04 281.21 971.4 276.25C978.45 271.51 987.46 272.03 991.95 277.43C993.78 279.65 996.09 279.38 999.98 276.51C1006.27 271.88 1013.57 272.31 1020.86 277.76C1025.4 281.15 1027.37 286.16 1026.7 292.63C1026.13 298.1 1027.06 300 1030.28 300C1033.18 300 1037.71 305.21 1039.05 310.09C1040.69 316.03 1039.2 326.11 1035.14 336.5C1031.36 346.18 1013.76 378.7 1004.82 392.5C976.64 436.05 940.25 462.48 891.25 474.99C888.64 475.66 886.37 477.03 885.38 478.54C883.9 480.81 883.9 481.2 885.41 483.5C887.33 486.43 889.13 486.56 897.75 484.4C901.26 483.52 904.3 482.96 904.5 483.16C905.85 484.52 907.45 504.34 907.39 519C907.32 537.13 905.97 548.27 901.8 565.1C900.63 569.84 899.95 574.44 900.29 575.32C901.08 577.38 905.81 578.6 907.9 577.3C911.91 574.8 916.98 548.64 917.73 526.68L920.88 511.48C922.32 511.83 926.2 513.37 929.5 514.9C952.33 525.53 965.69 554.56 962 585.49C959.62 605.44 951.67 625.34 940.23 640C933.83 648.19 933.9 648.16 925 645.59C916.9 643.24 903.38 642.51 898.5 644.15C895.41 645.2 894.44 646.07 894.24 648C893.75 652.73 895.05 653.34 906.17 653.6C922.73 653.98 934.96 658.61 942.73 667.43C953.29 679.43 950.01 696.36 936.32 700.44C934.2 701.07 934.16 700.93 934.69 693.79C935.3 685.59 934.11 679.95 930.72 674.91C928.06 670.97 925.18 670.04 923.35 672.53C922.28 674 922.48 674.96 924.63 678.64C928.05 684.47 928.9 693.3 926.52 698.31C924.58 702.41 923.81 702.65 910.14 703.43C901.89 703.91 901.8 703.89 902.48 701.71C906.03 690.33 901.7 675 894.71 674.18C891.54 673.81 890 676.35 891.87 678.89C896.88 685.72 898 693.03 895.14 700.25L883.77 702.99C860.26 702.97 827.93 699.59 817.76 696.09C806.99 692.38 806.99 692.36 818.76 686.3C836.45 677.19 852.65 665.31 865.09 652.33C875.13 641.85 876.37 639.51 873.43 636.57C870.3 633.44 867.9 634.81 855.6 646.78C829.12 672.56 795.94 688.75 754.5 696.12C745.42 697.74 736.85 698.38 719.27 698.75C706.5 699.01 694.54 698.95 692.7 698.6L690.73 691.74C692.72 682.71 693.52 642.91 692.08 624C690.82 607.45 686.56 573.88 684.96 567.87C683.74 563.3 681.74 561.6 678.54 562.4C674.28 563.47 673.95 565.62 676.02 578.58C681.06 610.14 683.32 645.31 681.91 670.45C680.49 695.84 677.54 704.58 667.12 714.23C660.83 720.05 653.86 723.15 643.9 724.54L637.65 721.07C635.53 715.79 635.55 709.73 637.7 703.74C639.31 699.24 639.31 698.88 637.68 697.25C635.56 695.13 633.21 696.31 631 700.59C629.35 703.8 628.9 718.61 630.32 723.11C631.07 725.49 630.86 725.78 627.95 726.36C623.83 727.18 610.62 726.99 605.65 726.03ZM296.56 699.51C285.48 694.96 277.94 688.63 273.65 680.3C270.7 674.57 271.22 673.88 277.25 675.62C285.28 677.94 292.27 683.22 297.37 690.84C301.2 696.55 303.89 702.06 302.82 701.98C302.64 701.96 299.83 700.85 296.56 699.51ZM312.44 697.25C314.69 684.47 321.93 671.21 329.52 665.98C331.91 664.34 334.18 663 334.57 663C334.96 663 334.99 665.8 334.64 669.22C333.49 680.14 326.82 691.49 317.6 698.17C312.44 701.91 311.64 701.77 312.44 697.25ZM1103.61 691.95C1107.46 684.84 1114.7 677.75 1121.2 674.72C1127.75 671.67 1134 670.4 1134 672.12C1134 674.2 1127.99 682.8 1124.22 686.12C1120.49 689.39 1108.71 695.38 1103.61 696.6L1103.61 691.95ZM1085.3 689.73C1081.98 686.28 1078.31 681.57 1077.13 679.26C1073.05 671.26 1070.36 656 1073.02 656C1075.2 656 1082.86 664.27 1085.77 669.75C1090.22 678.13 1094.61 696 1092.22 696C1091.72 696 1088.61 693.18 1085.3 689.73ZM276.63 647.97C273.33 644.05 272.01 639.13 272.01 630.73C272 624.3 272.14 623.9 274.67 622.93C276.14 622.38 278.04 622.05 278.9 622.22C281.45 622.71 286.35 633.82 286.81 640.18C287.18 645.24 286.95 646.14 284.66 648.43C281.33 651.76 279.74 651.67 276.63 647.97ZM1123.23 649.33C1119.38 647.78 1117.85 637.47 1120.12 628.44L1126.58 624L1133.46 629.18C1136.07 637.97 1134.95 646.89 1130.96 649.02C1129.04 650.05 1125.38 650.2 1123.23 649.33ZM251 646C246.97 641.97 249.43 633.34 257.1 624.63L264.49 621.7C267.51 623.14 267.83 623.66 267.35 626.41C265.79 635.3 263.48 641.41 260.47 644.6C256.82 648.47 253.9 648.9 251 646ZM1148.28 637.93C1145.25 635.96 1137 624.91 1137 622.81C1137 622.28 1138.33 620.51 1139.96 618.89L1148.8 618.9C1158.74 623.92 1163.87 631.57 1160.87 636.93C1158.93 640.41 1152.84 640.89 1148.28 637.93ZM1095.69 636.89C1088.81 632.89 1093.55 622.84 1105.09 616.95C1110.15 614.37 1110.98 614.52 1114.4 618.63L1113.4 627.77C1107.35 636.56 1100.87 639.9 1095.69 636.89ZM296.9 632.01C294.92 630.96 290.98 627.57 288.16 624.48L285.75 615.44C288.81 611.62 289.17 611.63 297.8 615.81C304.05 618.84 310 624.99 310 628.43C310 633.9 303.72 635.61 296.9 632.01ZM231.65 628.17C226.47 622.44 234.17 615.27 248.92 612.11C251.88 611.48 254.36 611.08 254.45 611.23C254.53 611.38 255.35 612.69 256.26 614.15C257.91 616.78 257.89 616.81 252.47 621.94C244.22 629.75 235.45 632.37 231.65 628.17ZM1122.42 618.03C1119.44 616.83 1115.28 611.57 1114.5 608.02C1112.92 600.82 1120.97 593.02 1128.51 594.44C1133.18 595.31 1137.73 599.38 1139.08 603.87C1141.87 613.18 1131.72 621.8 1122.42 618.03ZM265.19 615.97C263.33 614.84 261.19 612.32 260.31 610.23C256.18 600.39 267.36 590.52 276.99 595.49C281.19 597.67 283 600.83 283 606C283 611.17 281.19 614.33 276.99 616.51C273.04 618.55 269.13 618.37 265.19 615.97ZM1157.5 615.56C1156.95 615.35 1153.95 614.41 1150.84 613.48L1144.83 607.35L1149.74 601.39C1159.64 598.51 1170.65 600.04 1172.38 604.54C1174.6 610.34 1170.68 615.11 1163.28 615.62C1160.65 615.8 1158.05 615.77 1157.5 615.56ZM1087.51 611.54C1082.96 609.87 1081 607.66 1081 604.24C1081 596.03 1091.91 594.02 1106.01 599.63C1109.38 600.97 1109.5 601.19 1109.16 605.5C1108.82 609.71 1108.58 610.03 1105.15 610.94C1097.97 612.83 1091.61 613.05 1087.51 611.54ZM292.54 608.13C289.76 607.53 288.42 605.45 288.1 601.19C288.04 600.48 290.58 598.71 293.73 597.27C304.7 592.25 317 594.04 317 600.65C317 607.04 304.82 610.76 292.54 608.13ZM235.5 607.13C228.64 605.34 225.32 601.83 226.4 597.53C227.78 592.06 237.7 591.8 248.71 596.95C254.86 599.83 254.96 599.94 254.34 603.19C254 605.01 253.63 606.61 253.52 606.75C252.97 607.49 238.05 607.8 235.5 607.13ZM1139.87 594.7L1139.55 586.89C1142.21 581.66 1148.78 575.34 1152.55 574.4C1157.88 573.06 1162.97 578.22 1161.41 583.38C1160.22 587.29 1156.28 591.53 1151.37 594.16C1143.55 598.36 1142.81 598.39 1139.87 594.7ZM1104.39 593.17C1092.4 585.43 1088.8 577.47 1095.13 572.75C1100.56 568.7 1108.54 573.84 1114.48 585.2L1114.55 593.95C1112.94 595.63 1111.33 597 1110.97 597C1110.61 597 1107.65 595.28 1104.39 593.17ZM250.32 591.51C241.26 585.56 237.34 576.72 241.93 572.56C244.76 570.01 249.02 571.33 253.92 576.27C256.18 578.56 259.16 582.68 260.53 585.43L260.55 592.71C257.37 595.67 256.52 595.57 250.32 591.51ZM282.1 592.61L282.46 585.07C287.73 574.68 295.51 568.54 300.52 570.83C307.34 573.93 302.42 584.58 290.35 592.84C286.32 595.6 284.87 595.56 282.1 592.61ZM436.5 590.22C417.93 580.35 405.29 567.55 396.53 549.74C390.75 537.99 387.99 527.29 387.29 513.89C385.93 488.1 393.43 466.06 414.45 434C430.28 409.85 434.6 397.8 432.05 384.85C430.42 376.59 428.15 372.31 422.68 367.27C415.45 360.61 402.66 358.03 394.27 361.53C384.63 365.56 380.11 371.91 377.12 385.69C374.91 395.83 373.09 400.08 369.14 404.34C362.46 411.54 349.63 414.05 340.22 410C334.23 407.42 328.7 401.77 325.66 395.12C323.97 391.41 323.55 388.52 323.54 380.5C323.52 368.22 325.37 360.82 331.67 348C335.56 340.09 337.76 337.09 344.92 329.97C371.44 303.61 414.1 299.58 445.49 320.46C467.69 335.23 479.22 358.51 477.7 385.46C476.68 403.38 471.09 417.66 457.49 437C439.83 462.13 435.95 468.04 432.06 475.76C429.79 480.27 427.05 487.41 425.97 491.64C423.56 501.02 423.36 516.04 425.51 524.54C427.77 533.47 433.6 544.26 439.94 551.26L444.71 563C444.23 566.02 444.06 574.24 444.34 581.25C444.62 588.26 444.55 593.99 444.18 593.97C443.8 593.96 440.35 592.27 436.5 590.22ZM1126.81 589.2C1122.39 588.91 1122.05 588.68 1120.85 585.2C1120.15 583.16 1119.56 578.29 1119.54 574.36C1119.51 568.7 1119.9 566.78 1121.4 565.11C1123.86 562.39 1129.3 562.3 1131.94 564.94C1135.49 568.49 1135.94 579.71 1132.82 586.6C1131.6 589.28 1131.14 589.48 1126.81 589.2ZM266.19 584.75C263.13 572.29 263.96 564.38 268.65 561.31C274.91 557.21 279.84 566.11 277.92 578.04C276.33 587.89 275.64 589 271.14 589C267.38 589 267.2 588.85 266.19 584.75ZM858.9 369.89C861.34 367.91 863.17 367.75 863.12 369.52C863.11 370.06 861.61 370.8 859.8 371.17L858.9 369.89ZM1002.6 351.1C1010.58 347.47 1013.64 337.97 1010.53 326.46C1006.16 310.32 994.79 304.43 977.62 309.42C965.02 313.09 958.54 324.57 964.28 333.09C966.83 336.87 973.3 340.96 976.79 340.98C978.12 340.99 981.15 342.93 984.01 345.61C988.29 349.61 994.28 352.86 997.5 352.93C998.05 352.95 1000.34 352.12 1002.6 351.1ZM992.5 345.12C990.85 344.09 988.19 341.86 986.58 340.15C984.81 338.26 981.64 336.46 978.49 335.54C968.06 332.51 965.04 326.67 970.53 320.15C975.94 313.72 991.32 311.23 997.66 315.76C1002.54 319.23 1005.46 326.18 1005.48 334.33C1005.5 340.79 1005.32 341.32 1002.23 344.08C998.42 347.49 996.61 347.68 992.5 345.12ZM1029.98 329.21C1039.08 322.57 1036.46 308.55 1026.11 308.55C1014.23 308.55 1008.27 325 1018.11 330.65C1021.07 332.36 1026.58 331.69 1029.98 329.21ZM1019.67 325.33C1019.3 324.97 1019 323.25 1019 321.51C1019 317.32 1022.74 313.73 1026.65 314.17C1032.99 314.9 1029.56 326 1022.99 326C1021.53 326 1020.03 325.7 1019.67 325.33ZM690.6 307.02C696.23 304.25 704 297.17 704 294.81C704 294.36 706.83 296.87 710.29 300.4C715.85 306.07 717.43 307.07 723.91 309.04C740.12 313.96 756.57 307.73 763.45 294.06C767.12 286.78 767.52 283.48 764.94 281.67C761.76 279.44 760.27 280.55 758.57 286.41C755.62 296.56 746.52 302.95 735 302.97C723.59 302.99 713.08 295.87 710.16 286.14C708.16 279.46 708.61 277.52 712.84 274.72C714.95 273.33 717.27 270.77 717.99 269.03C718.88 266.89 720.82 265.11 724.12 263.44C728.79 261.07 732 257.02 732 253.5C732 250.28 728.99 246.22 725.29 244.47C720.06 241.98 688.95 241.94 684.17 244.41C675.16 249.07 676.51 260.7 686.43 263.98C688.66 264.71 690.21 266.09 691.02 268.05C692.31 271.15 698.28 277 700.17 277C701.78 277 700.45 285.21 698.11 289.75C691.92 301.79 676.06 306.69 663.36 300.47C657.26 297.49 653.62 293.27 651.12 286.3C649.6 282.04 649.07 281.5 646.45 281.5C642.97 281.5 642.19 284.01 643.97 289.41C650.04 307.79 672.11 316.13 690.6 307.02ZM1012.7 306.04C1016.79 303.55 1019.05 300.07 1019.69 295.25C1020.79 287.07 1014.68 280.09 1007.59 281.42C1003.09 282.26 1000.28 284.52 997.88 289.24C991.9 300.95 1002.09 312.51 1012.7 306.04ZM983.78 303.44C988.76 299.95 990.57 290.94 987.49 284.98C984.9 279.97 979.64 278.59 974.09 281.46C969.01 284.08 966.3 293.81 969.12 299.32C971.87 304.71 979.08 306.73 983.78 303.44ZM1003.2 300.8C1002.54 300.14 1002 297.87 1002 295.75C1002 289.38 1009.05 284.45 1012.8 288.2C1014.73 290.13 1014.23 296.44 1011.93 299.37C1009.7 302.2 1005.32 302.92 1003.2 300.8ZM976.4 299.23C973.8 297.5 972.85 293.98 974.02 290.44C975.4 286.27 978.16 284.48 980.93 285.96C984.85 288.06 984.71 295.69 980.7 298.5C978.27 300.2 977.93 300.26 976.4 299.23ZM699.63 268.93C698.19 267.79 697 266.27 697 265.56C697 263.29 693.12 259.25 690.27 258.53C687.01 257.72 684 255.24 684 253.37C684 252.64 685.09 251.34 686.41 250.47C690.09 248.06 719.79 247.98 723.43 250.36C727.85 253.26 726.11 256.55 719.11 258.51C716.24 259.31 715.06 260.43 713.38 263.93C712.21 266.35 710.44 268.94 709.44 269.67C706.78 271.61 702.65 271.3 699.63 268.93ZM649.72 245.92C652.25 240.6 653.46 229.44 652.34 221.66C650.27 207.29 643.13 196.15 632.72 191.05C624.42 186.98 618.56 186.28 610.72 188.41C595.66 192.51 586.39 205.01 585.25 222.76L580.88 231.64C576.79 232.29 574.54 234.12 575.24 236.22C575.57 237.2 580.01 237.51 594.08 237.55C614.69 237.6 620.96 238.78 635.72 245.38C644.82 249.45 647.97 249.57 649.72 245.92ZM772.33 246.01C775.96 244.36 782.88 241.8 787.72 240.31C795.82 237.82 797.9 237.61 814.73 237.53C827.3 237.47 833.32 237.08 834.14 236.26C836 234.4 833.57 232.31 828.69 231.58L824.36 223.72C823.95 192.71 791.73 175.99 770.07 195.55C759 205.56 754.25 224.04 758.54 240.48C761.08 250.23 762.1 250.64 772.33 246.01ZM640.5 240.33C638.85 239.45 637.34 238.6 637.14 238.43C636.94 238.25 637.73 236.79 638.88 235.16C642.31 230.35 643.55 223.04 642.07 216.4C641.07 211.96 639.88 209.82 636.49 206.44C627.3 197.24 615.05 200.09 609.25 212.77C607.09 217.47 606.82 219.17 607.33 224.63L600.01 231L591.46 227.66C590.6 223.06 592.42 214.08 595.41 208.18C599.85 199.42 608.48 194.03 618 194.07C633.86 194.13 644.84 206.17 645.81 224.54C646.25 233.07 645.42 242.03 644.19 241.96C643.81 241.94 642.15 241.2 640.5 240.33ZM764.3 238.25C763.86 236.19 763.56 230.9 763.63 226.5C763.93 207.33 775.37 194 791.5 194.03C806.33 194.06 816.85 205.55 817.8 222.75L809.73 231L802.15 226.85C804.32 217.18 799.48 206.43 791.33 202.82C774.82 195.52 760.62 215.67 769.88 233.27L769.35 240.37C767.47 241.27 765.74 242 765.51 242C765.28 242 764.73 240.31 764.3 238.25ZM627.75 218.92C626.62 218.26 626 216.68 626 214.43C626 211.7 626.53 210.71 628.5 209.82C634.53 207.07 639.17 214.66 633.78 218.44C631.21 220.24 630.17 220.33 627.75 218.92ZM787.57 218.43C785.71 216.57 785.5 211.9 787.2 210.2C787.86 209.54 789.57 209 791 209C792.43 209 794.14 209.54 794.8 210.2C796.79 212.19 796.23 216.73 793.78 218.44C790.97 220.41 789.55 220.41 787.57 218.43ZM554 125.33C565.24 113.92 575.34 105.9 588.07 98.28C593.98 94.73 596 92.98 596 91.4C596 90.05 592.82 86.22 587.18 80.78C571.11 65.29 555.34 55.12 545.99 54.23C541.82 53.82 541.09 54.07 539.16 56.53C535.09 61.69 533.8 68.4 533.27 87C532.86 101.74 533.11 106.43 534.86 116.72C537.27 130.85 539.1 136 541.7 135.99C542.69 135.99 548.23 131.19 554 125.33ZM870.01 133.97C874.6 125.4 877.61 88.46 875.05 72.25C872.17 54.08 867.09 50.52 853.4 57.05C840 63.44 812.33 87.27 813.18 91.68C813.36 92.63 817.89 96.13 823.25 99.47C835.64 107.18 850.14 119.12 858.63 128.61C865.46 136.24 868.13 137.5 870.01 133.97ZM542.05 120.75C541.46 117.86 540.53 111.67 539.99 107C537.56 85.81 540.52 60 545.38 60C550.38 60 573.39 75.63 583.27 85.74L580.27 95.47C570.42 101.63 556.02 113.18 549.17 120.41C546.27 123.48 543.72 126 543.51 126C543.31 126 542.65 123.64 542.05 120.75ZM856.53 117.23C846.76 107.9 834.6 98.5 826.08 93.68L828.8 82.89C837.92 74.24 852.29 64.2 859.49 61.45C864.01 59.73 864.32 59.72 865.52 61.36C870.45 68.1 870.86 111.57 866.12 124.15C865.63 125.44 863.58 123.96 856.53 117.23Z"/></svg>